<?xml version="1.0" encoding="UTF-8"?>
<svg width="263px" height="234px" viewBox="0 0 263 234" version="1.1" xmlns="http://www.w3.org/2000/svg" xmlns:xlink="http://www.w3.org/1999/xlink">
    <!-- Generator: Sketch 46.2 (44496) - http://www.bohemiancoding.com/sketch -->
    <title>graph</title>
    <desc>Created with Sketch.</desc>
    <defs></defs>
    <g id="Page-1" stroke="none" stroke-width="1" fill="none" fill-rule="evenodd" stroke-linecap="round">
        <g id="Desktop-HD" transform="translate(-588.000000, -396.000000)" stroke-width="19">
            <g id="graph" transform="translate(598.000000, 405.000000)">
                <g id="Bars" transform="translate(0.000000, 84.000000)" stroke="#87BE01">
                    <path d="M0,131 L0,113" id="bar-1"></path>
                    <path d="M36,130.667424 L36,94" id="bar-2"></path>
                    <path d="M73,130.667424 L73,65.4827391" id="bar-3"></path>
                    <path d="M110,130.667424 L110,56.4983146" id="bar-4"></path>
                    <path d="M147,130.667424 L147,56.4983146" id="bar-5"></path>
                    <path d="M184,130.667424 L184,28.400946" id="bar-6"></path>
                    <path d="M221,130.667424 L221,0.422238789" id="bar-7"></path>
                </g>
                <g id="Group" stroke="#FFFFFF">
                    <path d="M243,2 L243,35" id="arrow-1"></path>
                    <path d="M243,1 L210,1" id="arrow-1"></path>
                    <path d="M0.5,151.5 L75.4273004,94.342125 C75.7758059,94.0762695 76.2019997,93.9322678 76.640332,93.9322678 L149.933501,93.9322678 C150.470428,93.9322678 150.984806,93.7163777 151.360899,93.3331732 L242,0.980010986" id="arrow-2"></path>
                </g>
            </g>
        </g>
    </g>
</svg>